<svg viewBox="0 0 811.44 811.47" xmlns="http://www.w3.org/2000/svg" xmlns:xlink="http://www.w3.org/1999/xlink" id="Camada_1" overflow="hidden"><defs></defs><path d="M491.84 442 508.49 442 515.12 427.61 548.79 427.61 555.55 442 571.95 442 533.02 362.39 530.76 362.39 491.83 442ZM544.16 416.22 519.75 416.22 531.89 389.56 544.16 416.22Z" fill="#071E35"/><path d="M585.1 362.77 582.72 362.77 582.72 442 598.24 442 598.24 394.31 648.43 443.38 650.81 443.38 650.81 364.4 635.29 364.4 635.29 411.96 585.1 362.77Z" fill="#071E35"/><path d="M706.66 363.27C684.13 363.27 666.1 377.79 666.1 403.07 666.1 428.35 684.12 443 706.66 443 729.2 443 747.21 428.48 747.21 403.2 747.21 377.92 729.19 363.27 706.66 363.27ZM706.66 430.49C693.14 430.49 682 420.73 682 403.08 682 385.43 693.14 375.79 706.66 375.79 720.18 375.79 731.31 385.93 731.31 403.2 731.31 420.47 720.17 430.49 706.66 430.49Z" fill="#071E35"/><path d="M775.27 383.8C775.27 378.42 780.4 375.66 786.28 375.66 793.91 375.66 801.18 379.16 805.93 383.04L807.05 370.02C803.92 367.52 796.29 363.26 785.02 363.26 770.5 363.26 759.86 371.02 759.86 383.91 759.86 408.69 796.16 404.06 796.16 419.96 796.16 426.22 791.41 430.85 783.52 430.85 775.63 430.85 767.5 426.47 763.37 422.96L756.74 434.23C763.24 439.24 773.51 443.24 783.65 443.24 800.92 443.24 811.44 433.23 811.44 419.83 811.44 393.55 775.27 398.18 775.27 383.78Z" fill="#071E35"/><path d="M720.22 557.26 716.39 564.24 731 572.25 728.96 575.98C720.84 590.8 722.56 602.79 733.66 608.88 736.63 610.5 739.67 611.32 742.7 611.32 745.03 611.32 747.35 610.84 749.6 609.86 755.03 607.53 759.84 602.57 763.91 595.13L769.78 584.41 721.17 557.79 720.21 557.27ZM759.77 588.11 757.14 592.91C751.91 602.46 744.54 605.84 737.45 601.96 730.2 597.98 729.08 590.14 734.39 580.45L737.02 575.65 759.77 588.11Z" fill="#071E35"/><path d="M699.53 594.37 706.3 606.09 690.02 628.59 676.72 625.88 671.7 632.81 733.97 644.83 735.5 642.7 704.66 587.3 699.53 594.37ZM697.31 630.15 710.12 612.46 723.13 635.36 697.31 630.15Z" fill="#071E35"/><path d="M663.04 641.2 680.29 658.02 677.5 660.87C673.41 665.07 667.6 663.88 660.88 662.51 653.37 660.97 644.85 659.23 638.17 666.08L637.56 666.7 641.5 672.85 642.46 671.83C646.63 667.42 653.51 668.69 660.17 669.91 664.34 670.68 668.34 671.42 671.7 670.82 668.74 676.7 669.66 682.89 674.37 687.47 677.43 690.45 680.93 691.92 684.65 691.92 689.69 691.92 695.13 689.21 700.34 683.86L709.06 674.92 668.6 635.47 663.04 641.18ZM698.61 675.88 695.09 679.49 695.09 679.49C692.3 682.35 689.56 683.99 686.93 684.37 684.35 684.74 681.93 683.85 679.75 681.73 677.55 679.58 676.62 677.16 677 674.53 677.38 671.85 679.05 668.96 681.98 665.97L685.13 662.74 698.62 675.89Z" fill="#071E35"/><path d="M637.1 676.15C629.88 675.39 622.59 677.75 616.04 682.87 610.03 687.58 606.01 693.32 603.74 700.43L603.45 701.36 610.33 704.49 610.69 703.29C612.95 695.66 617.26 691.05 620.48 688.53 625.22 684.82 630.49 683.2 635.79 683.85 641.3 684.54 646.4 687.69 650.55 692.99 654.69 698.27 656.48 703.97 655.74 709.48 655.03 714.7 652.14 719.42 647.39 723.15 644.45 725.45 639.14 728.36 630.55 729.11L628.72 729.27 633.03 735.8 633.66 735.77C634.05 735.74 643.43 735.15 651.85 728.56 658.41 723.42 662.44 716.94 663.5 709.84 664.61 702.41 662.33 694.82 656.91 687.91 651.49 680.98 644.64 676.92 637.12 676.16Z" fill="#071E35"/><path d="M563.01 717.67 565.04 724.7 591.06 709.56 601.42 727.37 586.57 736.01 590.09 742.06 604.94 733.42 612.39 746.23 592.92 757.56 596.45 763.61 622.8 748.28 594.38 699.42 563.01 717.67Z" fill="#071E35"/><rect x="561.15" y="719.15" width="7.97" height="56.51" fill="#071E35" transform="matrix(0.905643 -0.424041 0.424041 0.905643 -263.58 310.11)"/><path d="M532.04 731.04 540.06 753.78 536.29 755.11C530.76 757.06 526.07 753.42 520.65 749.2 514.59 744.49 507.72 739.14 498.71 742.33L497.89 742.62 498.69 749.88 500 749.39C505.71 747.28 511.31 751.47 516.73 755.53 520.13 758.07 523.38 760.5 526.66 761.47 521.4 765.43 519.48 771.39 521.67 777.59 524.03 784.26 529.32 787.78 536.52 787.78 539.56 787.78 542.93 787.15 546.57 785.87L558.35 781.72 539.57 728.41 532.05 731.05ZM529.77 767.11C531.3 764.87 534.08 763.03 538.03 761.64L542.29 760.14 548.56 777.92 543.8 779.6C538.5 781.46 531.64 782.14 529.05 774.8 528.03 771.9 528.27 769.31 529.77 767.11Z" fill="#071E35"/><path d="M471.93 747.46C454.97 750.73 445.78 764.35 449.05 781.35 451.9 796.13 462.49 805.06 476.3 805.06 478.43 805.06 480.63 804.85 482.9 804.41 499.8 801.15 508.96 787.54 505.69 770.54 502.4 753.48 488.86 744.19 471.94 747.46ZM494.82 789.15C491.9 793.41 487.19 796.36 481.55 797.45 475.87 798.54 470.37 797.56 466.08 794.67 461.45 791.56 458.33 786.43 457.06 779.81 455.78 773.2 456.77 767.29 459.92 762.71 462.84 758.46 467.58 755.52 473.27 754.42 474.81 754.13 476.3 753.98 477.76 753.98 487.77 753.98 495.52 760.82 497.69 772.08 498.96 778.65 497.97 784.55 494.83 789.15Z" fill="#071E35"/><path d="M420.65 760.29C425.59 760.07 431.16 761.77 436 764.91L437.02 765.57 440.28 759.14 439.47 758.6C433.46 754.64 427.36 752.91 420.29 753.21 414.65 753.44 409.87 755.24 406.48 758.42 403.13 761.56 401.39 765.91 401.58 770.67 402.04 782.1 411.24 785 419.35 787.56 425.7 789.57 431.18 791.29 431.39 796.64 431.66 803.52 423.11 804.21 421.39 804.28 416.99 804.54 412.32 803.05 408.29 800.29L406.6 799.13 406.58 801.18C406.58 802.09 406.54 803 406.51 803.91 406.48 804.75 406.45 805.6 406.44 806.44L406.44 807.03C406.44 807.03 406.92 807.36 406.92 807.36 410.81 809.99 415.86 811.46 420.9 811.46 421.25 811.46 421.6 811.46 421.95 811.44 427.08 811.23 431.44 809.76 434.55 807.19 437.87 804.45 439.53 800.66 439.35 796.23 438.94 786.25 430.36 783.52 422.79 781.11 415.77 778.88 409.72 776.95 409.45 770.34 409.21 764.43 413.51 760.57 420.66 760.28Z" fill="#071E35"/><path d="M358.83 793.03 328.65 745.9 325.79 745.43 316.64 801.92 324.51 803.19 331.08 762.63 361.39 810.04 364.07 810.48 373.24 753.82 365.38 752.55 358.83 793.03Z" fill="#071E35"/><path d="M313.49 742.73 304.34 752.7 277.99 743.89 276.59 730.39 268.48 727.68 275.66 790.7 278.14 791.53 321.77 745.5 313.49 742.73ZM299.4 758.25 281.44 777.52 278.68 751.32 299.41 758.25Z" fill="#071E35"/><path d="M220.96 726.19 203.92 757.38 210.99 761.24 227.91 730.29C230.59 725.39 233.11 722.62 235.85 721.59 238.5 720.59 241.64 721.16 245.72 723.39L246.94 724.06 248.84 716.91 248.09 716.5C236.95 710.42 227.82 713.68 220.97 726.2Z" fill="#071E35"/><path d="M201.06 687.26C187.11 677.09 170.88 679.66 160.67 693.65 155.46 700.8 153.44 708.53 154.82 716.01 156.11 722.97 160.39 729.4 166.88 734.13 172.54 738.26 178.58 740.27 184.44 740.27 192.98 740.27 201.15 735.98 207.2 727.68 217.43 713.64 214.96 697.39 201.05 687.25ZM200.62 722.89C192.91 733.46 181.03 735.68 171.06 728.4 166.38 724.99 163.36 720.3 162.53 715.18 161.64 709.68 163.27 703.89 167.25 698.44 171.21 693 176.22 689.69 181.71 688.87 186.81 688.11 192.19 689.57 196.88 692.98 206.85 700.25 208.36 712.26 200.62 722.88Z" fill="#071E35"/><path d="M166.29 659.53 149.2 676.51 146.39 673.68C142.26 669.52 143.54 663.73 145.02 657.03 146.67 649.54 148.55 641.05 141.82 634.27L141.21 633.65 135 637.49 136 638.47C140.34 642.72 138.97 649.57 137.63 656.21 136.8 660.37 136 664.35 136.53 667.72 130.7 664.66 124.51 665.49 119.84 670.12 116.24 673.7 114.69 678.03 115.34 682.64 115.97 687.04 118.63 691.71 123.03 696.14L131.82 705 171.9 665.18 166.29 659.53ZM144.42 681.26 131.06 694.54 127.51 690.96C124.7 688.13 123.1 685.36 122.76 682.72 122.43 680.13 123.36 677.73 125.52 675.59 127.35 673.76 129.37 672.85 131.53 672.85 131.94 672.85 132.35 672.88 132.77 672.95 135.45 673.37 138.3 675.09 141.25 678.06L144.43 681.26Z" fill="#071E35"/><path d="M133.13 623.84 99.98 647.96 111.74 593.24 110.04 590.9 63.77 624.57 68.45 631.01 101.67 606.83 89.92 661.37 89.81 661.85 91.41 664.05 137.83 630.28 133.13 623.84Z" fill="#071E35"/><path d="M103.16 580.26 89.64 580.91 77.11 556.14 85.61 545.56 81.75 537.93 42.55 587.76 43.72 590.1 107.09 588.06 103.16 580.27ZM72.38 561.89 82.23 581.38 55.92 582.45 72.38 561.9Z" fill="#071E35"/><path d="M76.18 520.17C69.66 499.84 56.1 491.33 39.02 496.8 31.15 499.32 25.38 504.06 22.35 510.5 18.95 517.7 18.96 526.76 22.38 537.41L26.86 551.38 80.67 534.14 76.19 520.17ZM31 541.69 28.8 534.81C23.93 519.62 28.51 508.55 41.37 504.42 43.87 503.62 46.31 503.22 48.64 503.22 51.84 503.22 54.84 503.97 57.53 505.46 62.76 508.36 66.71 513.87 69.26 521.84L71.47 528.72 31 541.69Z" fill="#071E35"/><path d="M64.94 482.19 51.85 478.75 47.34 451.36 58.61 443.82 57.22 435.38 5.45 470.75 4.88 471.14 5.29 473.73 66.36 490.81 64.94 482.19ZM41.09 455.44 44.64 476.99 19.23 470.11 41.09 455.44Z" fill="#071E35"/><path d="M57.18 396.04C58.27 374.72 48.61 361.96 30.68 361.04 12.77 360.22 1.84 371.83 0.75 393.15L0 407.8 56.43 410.68 57.18 396.03ZM7.32 400.2 7.69 392.98C8.12 384.62 10.52 378.28 14.84 374.14 18.68 370.46 23.99 368.69 30.19 369 43.67 369.69 50.94 379.22 50.13 395.15L49.76 402.37 7.32 400.2Z" fill="#071E35"/><path d="M67.43 319.08 60.8 315.98 55.07 345.54 34.84 341.62 38.12 324.75 31.24 323.42 27.96 340.28 13.42 337.46 17.71 315.35 10.83 314.02 5.02 343.96 60.51 354.71 67.43 319.08Z" fill="#071E35"/><path d="M47.39 284.83C51.79 286.72 56.14 287.67 60.32 287.67 63.86 287.67 67.28 286.99 70.48 285.61 76.97 282.83 82.29 277.24 85.46 269.86 88.43 262.96 88.98 255.83 87.02 249.62 91.27 248.08 95.75 245.51 98.32 239.31L98.65 238.52 92.87 234.24 92.33 235.51C90.8 239.08 88.38 241.33 84.1 243.11 80.99 238.27 76.34 234.5 70.27 231.88 54.31 225.01 38.99 231.06 32.17 246.92 29 254.29 28.59 262 31.03 268.63 33.64 275.74 39.3 281.34 47.4 284.82ZM64.11 254.99 63.72 255.78 69.32 260.24 69.95 259.13C71.77 255.9 74.91 253.56 79.78 251.81 81.44 256.57 81.15 261.95 78.95 267.07 76.68 272.36 72.79 276.34 68.02 278.26 62.86 280.33 56.84 280.03 50.62 277.35 44.47 274.7 40.14 270.57 38.1 265.39 36.21 260.58 36.42 255.02 38.69 249.74 40.98 244.42 44.88 240.43 49.68 238.49 51.94 237.58 54.37 237.12 56.89 237.12 60.14 237.12 63.57 237.87 67.05 239.37 70.67 240.93 73.68 243.07 75.84 245.63 71.41 247.14 66.81 249.56 64.11 254.99Z" fill="#071E35"/><path d="M96.93 226.43C97.47 226.43 98.01 226.41 98.54 226.37 105 225.86 110.43 222.3 114.7 215.79 118.97 209.28 120.07 202.89 117.99 196.78 116.05 191.1 111.35 185.78 104.03 180.99L79.37 164.83 75 171.49 98.13 186.64C104.87 191.06 108.84 194.91 110.62 198.77 112.52 202.9 111.92 207.1 108.73 211.97 105.57 216.79 101.95 219.04 97.39 218.83 93.14 218.7 88.02 216.59 81.29 212.18L58.24 197.08 53.87 203.75 78.39 219.81C85.1 224.21 91.33 226.43 96.94 226.43Z" fill="#071E35"/><path d="M157.2 160.72 153.04 154.7 133.17 177.33 117.68 163.73 129.02 150.82 123.75 146.2 112.42 159.11 101.28 149.33 116.14 132.4 110.88 127.78 90.75 150.69 133.23 188 157.2 160.72Z" fill="#071E35"/><path d="M163.16 154.61 142.78 119.7 171.72 129.54 166.84 99.31 197.93 125.16 203.9 120.11 159.99 83.52 159.28 82.93 157.18 84.72 162.64 118.82 129.91 107.81 127.87 109.55 157.19 159.67 163.16 154.61Z" fill="#071E35"/><path d="M229.31 96.71C231.75 97.46 234.31 97.83 236.92 97.83 241.54 97.83 246.33 96.67 250.92 94.39 258.11 90.82 263.41 85.19 265.86 78.56 268.49 71.43 267.81 63.49 263.88 55.61 259.94 47.69 254.02 42.33 246.74 40.11 239.97 38.04 232.28 38.87 225.09 42.45 217.91 46.02 212.61 51.64 210.18 58.26 207.57 65.37 208.27 73.31 212.2 81.2 216.14 89.12 222.05 94.49 229.3 96.72ZM217.69 60.35C219.36 55.46 223.11 51.35 228.26 48.79 239.36 43.28 250.75 47.47 256.6 59.23 259.6 65.26 260.23 71.22 258.42 76.48 256.74 81.36 252.96 85.46 247.77 88.04 242.62 90.6 237.08 91.13 232.19 89.5 226.91 87.75 222.52 83.62 219.51 77.56 216.53 71.56 215.9 65.61 217.7 60.34Z" fill="#071E35"/><path d="M297.77 74.24C300.27 74.24 302.94 73.82 305.75 72.98 320.33 68.61 325.25 57.03 320 39.48L311.52 11.24 303.89 13.53 311.83 40.02C314.14 47.73 314.7 53.24 313.57 57.34 312.36 61.73 309.2 64.55 303.62 66.22 298.1 67.87 293.94 67.22 290.53 64.17 287.36 61.34 284.81 56.43 282.49 48.72L274.58 22.32 266.94 24.61 275.36 52.69C279.63 66.93 287.3 74.26 297.76 74.26Z" fill="#071E35"/><path d="M347.63 34.88C354.84 36.33 361.07 37.59 362.06 44.13 362.47 46.87 361.83 49.36 360.18 51.32 358.42 53.42 355.59 54.81 352 55.36 347.12 56.1 341.39 55.03 336.25 52.45L335.17 51.91 332.63 58.66 333.5 59.1C338.31 61.56 343.03 62.76 348.04 62.76 349.71 62.76 351.41 62.63 353.15 62.36 364.45 60.65 371.31 52.67 369.84 42.96 368.13 31.65 358.68 29.77 350.34 28.11 343.82 26.81 338.18 25.69 337.38 20.4 336.36 13.59 344.79 11.97 346.49 11.71 350.87 11.05 355.64 11.95 359.94 14.24L361.75 15.2 361.54 13.16C361.45 12.3 361.39 11.43 361.32 10.57 361.25 9.68 361.19 8.8 361.1 7.92L361.04 7.34 360.52 7.07C356.08 4.73 350.48 3.84 345.15 4.65 340.07 5.41 335.91 7.35 333.09 10.25 330.09 13.34 328.85 17.29 329.52 21.67 331.01 31.54 339.84 33.32 347.63 34.89Z" fill="#071E35"/><path d="M387.11 45.36 414.87 44.92 420.68 57.18 429.23 57.05 401.54 0 398.92 0.05 373.06 57.94 381.79 57.8 387.11 45.36ZM389.92 38.49 400.46 14.36 411.76 38.14 389.92 38.49Z" fill="#071E35"/><path d="M466.28 38.09 470.2 38.85C475.96 39.97 478.15 45.48 480.69 51.86 483.53 58.99 486.75 67.07 496.14 68.9L496.99 69.07 499.97 62.4 498.6 62.15C492.62 61.08 489.91 54.63 487.28 48.39 485.64 44.48 484.06 40.73 481.71 38.24 488.26 37.49 492.92 33.32 494.18 26.86 495.15 21.88 494 17.42 490.86 13.97 487.87 10.68 483.04 8.31 476.91 7.12L464.65 4.73 453.85 60.22 461.67 61.74 466.28 38.08ZM486.41 25.53C485.82 28.55 484.31 30.66 481.9 31.79 479.45 32.95 476.12 33.12 472.01 32.33L467.57 31.47 471.17 12.96 476.12 13.92C480.04 14.68 482.92 16.08 484.68 18.07 486.41 20.02 486.99 22.53 486.41 25.52Z" fill="#071E35"/><path d="M536.54 81.82 542.47 84.76 552.89 76.13 577.77 88.43 577.32 101.99 584.99 105.78 586.46 42.4 584.11 41.24 539.78 76.76 540.28 75.98 511.74 66.37 518.31 46.84 534.59 52.32 536.83 45.68 520.55 40.2 525.28 26.15 546.63 33.34 548.87 26.7 519.96 16.98 501.92 70.55 536.33 82.13 536.53 81.82ZM578.95 54.66 578.11 80.98 558.54 71.3 578.95 54.66Z" fill="#071E35"/><path d="M618.87 120.75 598.82 107.3 626.36 66.25 619.74 61.8 588.25 108.75 613.45 125.65 618.87 120.75Z" fill="#071E35"/><rect x="612.45" y="107.52" width="56.5" height="7.97" fill="#071E35" transform="matrix(0.624425 -0.781085 0.781085 0.624425 153.52 542.3)"/><path d="M630 137.98 665.27 172.32 671.43 168.55 644.42 142.25 703.84 130.99 674.48 102.39 668.32 106.17 689.48 126.78 630 137.98Z" fill="#071E35"/><path d="M671.13 179.34 684.29 176.24 701.13 198.31 694.71 210.26 699.89 217.06 729.02 161.54 729.34 160.93 727.75 158.84 665.82 172.41 671.12 179.35ZM717.15 168.56 704.73 191.77 691.49 174.42 717.16 168.57Z" fill="#071E35"/><path d="M705.54 227.95 726.65 216.3 728.58 219.79C731.42 224.93 728.6 230.15 725.33 236.19 721.69 242.94 717.55 250.6 722.18 258.98L722.6 259.74 729.62 257.75 728.93 256.54C725.92 251.27 729.12 245.04 732.22 239.03 734.16 235.25 736.03 231.64 736.43 228.24 741.21 232.78 747.39 233.69 753.16 230.5 757.6 228.05 760.29 224.3 760.92 219.68 761.52 215.28 760.24 210.05 757.22 204.58L751.18 193.65 701.69 220.99 705.55 227.97ZM749.05 203.92 751.49 208.34C754.21 213.26 756.02 219.92 749.2 223.68 742.37 227.43 737.57 222.12 734.73 216.99L732.54 213.03 749.05 203.92Z" fill="#071E35"/><path d="M144.81 585.33 137.44 595.36 138.06 595.46 144.81 585.33Z" fill="#071E35"/><path d="M526.69 597.3C596.93 597.3 644.78 550.92 660.57 467.57L619.61 467.57C606.31 529.98 572.6 563.01 526.69 563.01 465.46 563.01 426.89 506.68 426.89 402.59 426.89 298.5 465.47 241.56 526.69 241.56 572.71 241.56 606.46 275.1 619.7 337.41L660.72 337.41C645.07 253.92 597.14 207.27 526.69 207.27 444.99 207.27 393.16 269.14 386.59 378.4 364.82 362.24 336.08 352.68 303.37 349.93L390.93 218.9 388.48 212.78 185.2 212.78 176.63 246.46 331.54 246.46 243.69 376.23 283.3 380.33 284.4 378.71C342.56 382.38 388.49 411.16 388.49 469.33 388.49 521.37 340.11 563.01 275.22 563.01 239.64 563.01 208.67 554.36 182.28 534.36L162.42 561.39C189.85 582.38 226.27 597.31 275.83 597.31 335.24 597.31 387.04 571.25 412.58 528.98 436.58 573.3 475.84 597.31 526.7 597.31Z" fill="#071E35"/></svg>