<svg viewBox="0 0 1403.79 550.02" xmlns="http://www.w3.org/2000/svg" xmlns:xlink="http://www.w3.org/1999/xlink" id="Camada_1" overflow="hidden"><defs></defs><path d="M1180.31 476.03C1159.86 476.03 1143.61 489.27 1143.61 512.97 1143.61 536.67 1159.87 550.02 1180.31 550.02 1200.75 550.02 1217.13 536.78 1217.13 513.08 1217.13 489.38 1200.75 476.03 1180.31 476.03ZM1180.42 544.32C1163.58 544.32 1149.99 533.29 1149.99 512.96 1149.99 492.63 1163.58 481.71 1180.42 481.71 1197.26 481.71 1210.85 492.98 1210.85 513.07 1210.85 533.16 1197.26 544.32 1180.42 544.32Z" fill="#071E35"/><path d="M1182.75 514.7C1188.44 513.77 1192.74 510.4 1192.74 504.01 1192.74 496.23 1187.4 492.05 1177.99 491.7 1175.9 491.58 1173.81 491.58 1171.6 491.58L1166.72 491.58 1166.72 534.21 1172.88 534.21 1172.88 517.37 1175.32 517.37C1187.52 517.37 1186.24 532.47 1198.21 534.1L1199.95 528.99C1191.36 527.83 1191.24 516.91 1182.76 514.7ZM1174.15 511.92 1172.87 511.92 1172.87 496.82 1173.68 496.82C1181.93 496.82 1186.69 497.98 1186.69 504.25 1186.69 510.52 1182.16 511.92 1174.14 511.92Z" fill="#071E35"/><path d="M1403.79 368.85C1399.86 365.04 1254.53 284 1018.23 238.61 1037.2 227.5 1053.15 214.02 1065.86 198.22 1080.27 179.41 1087.57 157.77 1087.57 133.92 1087.57 103.31 1077 77.43 1056.17 56.99 1036.45 37.65 1009.45 23.17 975.97 13.97 943.41 4.93 907.12 0.36 864.91 5.32907e-15L712.53 5.32907e-15 712.53 208.53C708.66 208.5 704.81 208.46 700.92 208.46 603.38 208.46 512.07 217.57 429.62 231.39L429.62 57.31 658.11 57.31 658.11 0 327.6 0 327.6 251.68C129.38 297.33 3 363.16 0 365.95 42.94 358.51 327.58 273.41 733.84 273.41 1100.04 273.41 1354.97 361.05 1403.8 368.85ZM814.2 56.97 848.04 56.97C875.16 56.97 899.58 60.53 920.82 67.6 940.16 73.75 955.81 83.49 967.21 96.38 977.69 108.57 982.79 123.54 982.79 142.17 982.79 157.23 979.7 169.58 973.49 179.03 967.02 189.16 958.48 197.21 947.24 203.72 936.29 210.23 923.26 215.32 908.8 218.78 906.08 219.37 903.35 219.86 900.62 220.34 872.72 217.01 843.91 214.27 814.21 212.27L814.21 56.97Z" fill="#071E35"/><path d="M1012.86 331.08C1018.31 337.19 1023.1 343.89 1027.27 351.33 1034.05 364.37 1037.48 379.64 1037.48 396.72 1037.48 414.67 1033.76 429.63 1026.29 441.41 1019.41 452.68 1009.18 462.08 995.78 469.39 982.2 476.94 966.05 482.35 946.43 485.95 927.41 489.44 906.23 491.2 883.47 491.2L814.2 491.2 814.2 310.44C787.36 308.95 760.5 307.97 733.48 307.68 726.44 307.61 719.47 307.59 712.52 307.58L712.52 548.17 900.33 548.17C953 548.17 997.75 541.36 1033.39 527.91 1069.66 514.07 1097.06 494.99 1114.89 471.09 1133.31 446 1142.27 419.42 1142.27 389.83 1142.27 376.29 1140.57 363.57 1137.22 351.75 1094.76 343.96 1053.44 337.01 1012.86 331.07Z" fill="#071E35"/><path d="M327.58 548.18 429.61 548.18 429.61 324.55C392.96 328.95 358.85 333.88 327.58 338.96L327.58 548.18Z" fill="#071E35"/></svg>